<?xml version="1.0" standalone="no"?>
<!DOCTYPE svg PUBLIC "-//W3C//DTD SVG 20010904//EN"
 "http://www.w3.org/TR/2001/REC-SVG-20010904/DTD/svg10.dtd">
<svg version="1.0" xmlns="http://www.w3.org/2000/svg"
 width="650.000000pt" height="650.000000pt" viewBox="0 0 650.000000 650.000000"
 preserveAspectRatio="xMidYMid meet">
<metadata>
Created by potrace 1.11, written by Peter Selinger 2001-2013
</metadata>
<g transform="translate(0.000000,650.000000) scale(0.100000,-0.100000)"
fill="#000000" stroke="none">
<path d="M0 4750 l0 -1750 3250 0 3250 0 0 250 0 250 -1710 0 -1710 0 0 250 0
250 1710 0 1710 0 0 250 0 250 -1710 0 -1710 0 0 250 0 250 1710 0 1710 0 0
250 0 250 -1710 0 -1710 0 0 250 0 250 1710 0 1710 0 0 250 0 250 -3250 0
-3250 0 0 -1750z m225 1521 l18 -60 70 -3 70 -3 -57 -39 c-31 -21 -56 -39 -56
-41 0 -1 9 -28 20 -60 11 -32 18 -60 16 -62 -2 -3 -27 12 -55 33 l-52 36 -59
-41 -59 -42 19 57 c11 32 20 63 20 70 0 8 -23 31 -51 51 l-50 38 67 5 68 5 20
62 c11 34 22 60 26 58 4 -2 15 -31 25 -64z m911 -61 l69 -5 -53 -37 c-28 -21
-52 -44 -52 -51 0 -8 9 -39 20 -71 l19 -57 -59 42 -59 41 -51 -37 c-28 -21
-53 -35 -55 -33 -3 3 4 31 15 63 11 32 20 59 20 60 0 2 -25 20 -56 41 l-57 39
70 3 70 3 13 41 c29 99 30 100 54 28 l23 -65 69 -5z m734 65 l22 -65 71 0 72
0 -58 -41 c-31 -22 -57 -44 -57 -48 0 -4 9 -34 20 -66 11 -32 20 -60 20 -62 0
-2 -25 15 -55 37 -30 22 -57 40 -60 40 -3 0 -29 -18 -58 -39 -28 -22 -53 -39
-54 -37 -2 1 6 29 17 61 11 32 20 62 20 66 0 4 -25 26 -57 48 l-56 41 71 0 70
0 22 65 c12 36 23 65 25 65 2 0 13 -29 25 -65z m825 -4 l18 -60 70 -3 70 -3
-57 -39 c-31 -21 -56 -39 -56 -41 0 -1 9 -28 20 -60 11 -32 18 -60 16 -62 -2
-3 -27 12 -55 33 l-52 36 -59 -41 -59 -42 19 57 c11 32 20 63 20 70 0 8 -23
31 -51 51 l-50 38 67 5 68 5 20 62 c11 34 22 60 26 58 4 -2 15 -31 25 -64z
m-1146 -409 l73 -3 -56 -40 c-31 -22 -56 -44 -56 -48 0 -4 9 -34 20 -66 11
-32 19 -60 17 -61 -1 -2 -26 15 -54 37 -29 21 -55 39 -59 39 -4 0 -31 -18 -61
-40 -29 -23 -53 -37 -53 -32 0 5 9 35 20 67 11 32 20 59 20 61 0 1 -26 21 -57
43 l-58 41 72 0 71 0 23 68 22 67 22 -65 22 -65 72 -3z m731 63 l22 -65 71 0
71 0 -53 -40 c-30 -21 -55 -41 -57 -43 -2 -2 5 -30 16 -62 11 -32 20 -62 20
-67 0 -5 -25 10 -56 33 l-55 42 -60 -42 c-32 -23 -59 -40 -59 -38 0 2 9 30 20
62 11 32 20 62 20 66 0 4 -24 25 -52 46 l-53 38 70 5 69 5 20 63 c11 34 21 62
22 62 1 0 12 -29 24 -65z m-1645 -5 l18 -59 70 -3 69 -3 -55 -40 -54 -39 19
-59 c11 -32 18 -61 15 -64 -4 -3 -23 8 -44 24 -60 47 -60 47 -114 8 -28 -20
-53 -34 -56 -31 -3 3 4 32 15 64 l20 60 -56 39 -56 38 71 3 70 3 18 59 c10 33
21 60 25 60 4 0 15 -27 25 -60z m-410 -349 l18 -60 70 -3 70 -3 -57 -39 c-31
-21 -56 -39 -56 -41 0 -1 9 -28 20 -60 11 -32 18 -60 16 -62 -2 -3 -27 12 -55
33 l-52 36 -59 -41 -59 -42 19 57 c11 32 20 63 20 70 0 8 -23 31 -51 51 l-50
38 67 5 68 5 20 62 c11 34 22 60 26 58 4 -2 15 -31 25 -64z m911 -61 l69 -5
-53 -37 c-28 -21 -52 -44 -52 -51 0 -8 9 -39 20 -71 l19 -57 -59 42 -59 41
-51 -37 c-28 -21 -53 -35 -55 -33 -3 3 4 31 15 63 11 32 20 59 20 60 0 2 -25
20 -56 41 l-57 39 70 3 70 3 13 41 c29 99 30 100 54 28 l23 -65 69 -5z m734
65 l22 -65 71 0 72 0 -58 -41 c-31 -22 -57 -44 -57 -48 0 -4 9 -34 20 -66 11
-32 20 -60 20 -62 0 -2 -25 15 -55 37 -30 22 -57 40 -60 40 -3 0 -29 -18 -58
-39 -28 -22 -53 -39 -54 -37 -2 1 6 29 17 61 11 32 20 62 20 66 0 4 -25 26
-57 48 l-56 41 71 0 70 0 22 65 c12 36 23 65 25 65 2 0 13 -29 25 -65z m825
-4 l18 -60 70 -3 70 -3 -57 -39 c-31 -21 -56 -39 -56 -41 0 -1 9 -28 20 -60
11 -32 18 -60 16 -62 -2 -3 -27 12 -55 33 l-52 36 -59 -41 -59 -42 19 57 c11
32 20 63 20 70 0 8 -23 31 -51 51 l-50 38 67 5 68 5 20 62 c11 34 22 60 26 58
4 -2 15 -31 25 -64z m-1146 -409 l73 -3 -56 -40 c-31 -22 -56 -44 -56 -48 0
-4 9 -34 20 -66 11 -32 19 -60 17 -61 -1 -2 -26 15 -54 37 -29 21 -55 39 -59
39 -4 0 -31 -18 -61 -40 -29 -23 -53 -37 -53 -32 0 5 9 35 20 67 11 32 20 59
20 61 0 1 -26 21 -57 43 l-58 41 72 0 71 0 23 68 22 67 22 -65 22 -65 72 -3z
m731 63 l22 -65 71 0 71 0 -53 -40 c-30 -21 -55 -41 -57 -43 -2 -2 5 -30 16
-62 11 -32 20 -62 20 -67 0 -5 -25 10 -56 33 l-55 42 -60 -42 c-32 -23 -59
-40 -59 -38 0 2 9 30 20 62 11 32 20 62 20 66 0 4 -24 25 -52 46 l-53 38 70 5
69 5 20 63 c11 34 21 62 22 62 1 0 12 -29 24 -65z m-1645 -5 l18 -59 70 -3 69
-3 -55 -40 -54 -39 19 -59 c11 -32 18 -61 15 -64 -4 -3 -23 8 -44 24 -60 47
-60 47 -114 8 -28 -20 -53 -34 -56 -31 -3 3 4 32 15 64 l20 60 -56 39 -56 38
71 3 70 3 18 59 c10 33 21 60 25 60 4 0 15 -27 25 -60z m-410 -349 l18 -60 70
-3 70 -3 -57 -39 c-31 -21 -56 -39 -56 -41 0 -1 9 -28 20 -60 11 -32 18 -60
16 -62 -2 -3 -27 12 -55 33 l-52 36 -59 -41 -59 -42 19 57 c11 32 20 63 20 70
0 8 -23 31 -51 51 l-50 38 67 5 68 5 20 62 c11 34 22 60 26 58 4 -2 15 -31 25
-64z m911 -61 l69 -5 -53 -37 c-28 -21 -52 -44 -52 -51 0 -8 9 -39 20 -71 l19
-57 -59 42 -59 41 -51 -37 c-28 -21 -53 -35 -55 -33 -3 3 4 31 15 63 11 32 20
59 20 60 0 2 -25 20 -56 41 l-57 39 70 3 70 3 13 41 c29 99 30 100 54 28 l23
-65 69 -5z m734 65 l22 -65 71 0 72 0 -58 -41 c-31 -22 -57 -44 -57 -48 0 -4
9 -34 20 -66 11 -32 20 -60 20 -62 0 -2 -25 15 -55 37 -30 22 -57 40 -60 40
-3 0 -29 -18 -58 -39 -28 -22 -53 -39 -54 -37 -2 1 6 29 17 61 11 32 20 62 20
66 0 4 -25 26 -57 48 l-56 41 71 0 70 0 22 65 c12 36 23 65 25 65 2 0 13 -29
25 -65z m825 -4 l18 -60 70 -3 70 -3 -57 -39 c-31 -21 -56 -39 -56 -41 0 -1 9
-28 20 -60 11 -32 18 -60 16 -62 -2 -3 -27 12 -55 33 l-52 36 -59 -41 -59 -42
19 57 c11 32 20 63 20 70 0 8 -23 31 -51 51 l-50 38 67 5 68 5 20 62 c11 34
22 60 26 58 4 -2 15 -31 25 -64z m-1146 -409 l73 -3 -56 -40 c-31 -22 -56 -44
-56 -48 0 -4 9 -34 20 -66 11 -32 19 -60 17 -61 -1 -2 -26 15 -54 37 -29 21
-55 39 -59 39 -4 0 -31 -18 -61 -40 -29 -23 -53 -37 -53 -32 0 5 9 35 20 67
11 32 20 59 20 61 0 1 -26 21 -57 43 l-58 41 72 0 71 0 23 68 22 67 22 -65 22
-65 72 -3z m731 63 l22 -65 71 0 71 0 -53 -40 c-30 -21 -55 -41 -57 -43 -2 -2
5 -30 16 -62 11 -32 20 -62 20 -67 0 -5 -25 10 -56 33 l-55 42 -60 -42 c-32
-23 -59 -40 -59 -38 0 2 9 30 20 62 11 32 20 62 20 66 0 4 -24 25 -52 46 l-53
38 70 5 69 5 20 63 c11 34 21 62 22 62 1 0 12 -29 24 -65z m-1645 -5 l18 -59
70 -3 69 -3 -55 -40 -54 -39 19 -59 c11 -32 18 -61 15 -64 -4 -3 -23 8 -44 24
-60 47 -60 47 -114 8 -28 -20 -53 -34 -56 -31 -3 3 4 32 15 64 l20 60 -56 39
-56 38 71 3 70 3 18 59 c10 33 21 60 25 60 4 0 15 -27 25 -60z m-410 -349 l18
-60 70 -3 70 -3 -57 -39 c-31 -21 -56 -39 -56 -41 0 -1 9 -28 20 -60 11 -32
18 -60 16 -62 -2 -3 -27 12 -55 33 l-52 36 -59 -41 -59 -42 19 57 c11 32 20
63 20 70 0 8 -23 31 -51 51 l-50 38 67 5 68 5 20 62 c11 34 22 60 26 58 4 -2
15 -31 25 -64z m911 -61 l69 -5 -53 -37 c-28 -21 -52 -44 -52 -51 0 -8 9 -39
20 -71 l19 -57 -59 42 -59 41 -51 -37 c-28 -21 -53 -35 -55 -33 -3 3 4 31 15
63 11 32 20 59 20 60 0 2 -25 20 -56 41 l-57 39 70 3 70 3 13 41 c29 99 30
100 54 28 l23 -65 69 -5z m734 65 l22 -65 71 0 72 0 -58 -41 c-31 -22 -57 -44
-57 -48 0 -4 9 -34 20 -66 11 -32 20 -60 20 -62 0 -2 -25 15 -55 37 -30 22
-57 40 -60 40 -3 0 -29 -18 -58 -39 -28 -22 -53 -39 -54 -37 -2 1 6 29 17 61
11 32 20 62 20 66 0 4 -25 26 -57 48 l-56 41 71 0 70 0 22 65 c12 36 23 65 25
65 2 0 13 -29 25 -65z m825 -4 l18 -60 70 -3 70 -3 -57 -39 c-31 -21 -56 -39
-56 -41 0 -1 9 -28 20 -60 11 -32 18 -60 16 -62 -2 -3 -27 12 -55 33 l-52 36
-59 -41 -59 -42 19 57 c11 32 20 63 20 70 0 8 -23 31 -51 51 l-50 38 67 5 68
5 20 62 c11 34 22 60 26 58 4 -2 15 -31 25 -64z m-1146 -409 l73 -3 -56 -40
c-31 -22 -56 -44 -56 -48 0 -4 9 -34 20 -66 11 -32 19 -60 17 -61 -1 -2 -26
15 -54 37 -29 21 -55 39 -59 39 -4 0 -31 -18 -61 -40 -29 -23 -53 -37 -53 -32
0 5 9 35 20 67 11 32 20 59 20 61 0 1 -26 21 -57 43 l-58 41 72 0 71 0 23 68
22 67 22 -65 22 -65 72 -3z m731 63 l22 -65 71 0 71 0 -53 -40 c-30 -21 -55
-41 -57 -43 -2 -2 5 -30 16 -62 11 -32 20 -62 20 -67 0 -5 -25 10 -56 33 l-55
42 -60 -42 c-32 -23 -59 -40 -59 -38 0 2 9 30 20 62 11 32 20 62 20 66 0 4
-24 25 -52 46 l-53 38 70 5 69 5 20 63 c11 34 21 62 22 62 1 0 12 -29 24 -65z
m-1645 -5 l18 -59 70 -3 69 -3 -55 -40 -54 -39 19 -59 c11 -32 18 -61 15 -64
-4 -3 -23 8 -44 24 -60 47 -60 47 -114 8 -28 -20 -53 -34 -56 -31 -3 3 4 32
15 64 l20 60 -56 39 -56 38 71 3 70 3 18 59 c10 33 21 60 25 60 4 0 15 -27 25
-60z m-410 -349 l18 -60 70 -3 70 -3 -57 -39 c-31 -21 -56 -39 -56 -41 0 -1 9
-28 20 -60 11 -32 18 -60 16 -62 -2 -3 -27 12 -55 33 l-52 36 -59 -41 -59 -42
19 57 c11 32 20 63 20 70 0 8 -23 31 -51 51 l-50 38 67 5 68 5 20 62 c11 34
22 60 26 58 4 -2 15 -31 25 -64z m911 -61 l69 -5 -53 -37 c-28 -21 -52 -44
-52 -51 0 -8 9 -39 20 -71 l19 -57 -59 42 -59 41 -51 -37 c-28 -21 -53 -35
-55 -33 -3 3 4 31 15 63 11 32 20 59 20 60 0 2 -25 20 -56 41 l-57 39 70 3 70
3 13 41 c29 99 30 100 54 28 l23 -65 69 -5z m734 65 l22 -65 71 0 72 0 -58
-41 c-31 -22 -57 -44 -57 -48 0 -4 9 -34 20 -66 11 -32 20 -60 20 -62 0 -2
-25 15 -55 37 -30 22 -57 40 -60 40 -3 0 -29 -18 -58 -39 -28 -22 -53 -39 -54
-37 -2 1 6 29 17 61 11 32 20 62 20 66 0 4 -25 26 -57 48 l-56 41 71 0 70 0
22 65 c12 36 23 65 25 65 2 0 13 -29 25 -65z m825 -4 l18 -60 70 -3 70 -3 -57
-39 c-31 -21 -56 -39 -56 -41 0 -1 9 -28 20 -60 11 -32 18 -60 16 -62 -2 -3
-27 12 -55 33 l-52 36 -59 -41 -59 -42 19 57 c11 32 20 63 20 70 0 8 -23 31
-51 51 l-50 38 67 5 68 5 20 62 c11 34 22 60 26 58 4 -2 15 -31 25 -64z"/>
<path d="M0 2250 l0 -250 3250 0 3250 0 0 250 0 250 -3250 0 -3250 0 0 -250z"/>
<path d="M0 1250 l0 -250 3250 0 3250 0 0 250 0 250 -3250 0 -3250 0 0 -250z"/>
<path d="M0 250 l0 -250 3250 0 3250 0 0 250 0 250 -3250 0 -3250 0 0 -250z"/>
</g>
</svg>
